<svg width="300" height="240" viewBox="0 0 300 240" fill="none" xmlns="http://www.w3.org/2000/svg">
<path fill-rule="evenodd" clip-rule="evenodd" d="M266.461 46.4275C269.338 46.4275 271.672 48.7603 271.672 51.6385C271.672 54.5167 269.338 56.8495 266.461 56.8495C263.583 56.8495 261.25 54.5167 261.25 51.6385C261.25 48.7603 263.583 46.4275 266.461 46.4275ZM253.055 66.0628C258.047 63.2406 262.665 65.1947 263.07 69.1023C263.07 69.1023 259.35 66.0628 253.923 70.1873C252.174 71.5159 250.046 74.0219 247.964 76.8081C247.002 78.8012 246.03 80.6931 245.05 82.4827C248.677 78.3808 252.79 74.354 256.165 72.6959C264.164 68.7662 266.283 75.257 266.283 75.257C267.581 82.7294 261.378 84.038 261.378 84.038C261.378 84.038 261.616 77.6525 255.218 78.681C251.631 79.2571 246.033 83.9583 241.806 87.979C241.691 88.1579 241.577 88.3347 241.463 88.5104C251.891 84.1552 260.497 85.2149 260.497 85.2149C260.497 85.2149 255.159 92.2212 244.593 96.6325C245.232 96.7662 245.878 96.9096 246.533 97.0627C252.255 96.5313 259.159 95.436 261.884 93.1911C266.886 89.0707 261.937 85.0273 261.937 85.0273C261.937 85.0273 267.019 81.2395 271.768 87.1526C271.768 87.1526 275.237 93.0343 267 96.4372C263.306 97.9642 257.049 98.3466 251.273 98.3039C252.898 98.7722 254.569 99.2949 256.285 99.8725C260.19 100.378 264.024 100.645 266.453 100.243C273.178 99.1299 273.524 94.3393 273.524 94.3393C276.086 97.3166 274.336 102.015 268.855 103.707C268.358 103.86 267.733 103.933 267.007 103.939C269.286 104.893 271.629 105.924 274.035 107.035C286.532 112.798 296.174 118.646 296.27 118.705C296.723 118.98 296.999 119.472 296.999 120.002C296.999 120.532 296.723 121.024 296.27 121.3C296.174 121.358 286.532 127.206 274.035 132.97C272.081 133.871 270.17 134.721 268.3 135.519C268.524 135.548 268.73 135.589 268.92 135.641C274.445 137.176 276.329 141.822 273.853 144.871C273.853 144.871 273.372 140.092 266.618 139.171C264.442 138.874 261.164 139.141 257.722 139.639C255.632 140.368 253.608 141.019 251.649 141.59C257.115 141.255 262.87 141.316 266.429 142.53C274.864 145.407 271.773 151.496 271.773 151.496C267.406 157.696 262.094 154.236 262.094 154.236C262.094 154.236 266.778 149.889 261.527 146.092C258.583 143.964 251.3 143.329 245.468 143.183C245.261 143.229 245.056 143.273 244.851 143.316C255.304 147.61 260.639 154.445 260.639 154.445C260.639 154.445 251.91 155.625 241.32 151.273C241.677 151.818 242.033 152.378 242.387 152.949C246.809 156.619 252.466 160.727 255.98 161.066C262.43 161.689 261.79 155.331 261.79 155.331C261.79 155.331 268.062 156.246 267.239 163.785C267.239 163.785 265.534 170.397 257.303 166.979C253.61 165.446 248.916 161.292 244.862 157.178C245.68 158.658 246.492 160.21 247.297 161.832C249.702 164.951 252.223 167.85 254.225 169.283C259.767 173.252 263.399 170.108 263.399 170.108C263.106 174.025 258.546 176.109 253.475 173.43C253.015 173.187 252.521 172.797 252.003 172.287C252.94 174.573 253.868 176.96 254.784 179.446C259.544 192.358 262.228 203.311 262.255 203.419C262.38 203.935 262.227 204.478 261.852 204.853C261.564 205.141 261.176 205.298 260.778 205.298H260.772H260.767C260.651 205.297 260.534 205.283 260.419 205.255C260.31 205.229 249.357 202.546 236.445 197.785C234.427 197.041 232.474 196.29 230.587 195.532C230.725 195.71 230.842 195.886 230.939 196.056C233.761 201.049 231.807 205.667 227.9 206.071C227.9 206.071 230.939 202.352 226.814 196.925C225.485 195.176 222.979 193.048 220.192 190.965C218.2 190.003 216.308 189.032 214.519 188.051C218.621 191.678 222.648 195.791 224.306 199.166C228.236 207.165 221.745 209.284 221.745 209.284C214.273 210.581 212.963 204.379 212.963 204.379C212.963 204.379 219.349 204.617 218.321 198.219C217.744 194.632 213.043 189.034 209.023 184.807C208.844 184.693 208.667 184.579 208.491 184.464C212.846 194.891 211.786 203.498 211.786 203.498C211.786 203.498 204.78 198.159 200.368 187.595C200.235 188.233 200.091 188.88 199.938 189.536C200.47 195.257 201.565 202.16 203.81 204.885C207.93 209.886 211.974 204.938 211.974 204.938C211.974 204.938 215.762 210.02 209.848 214.769C209.848 214.769 203.967 218.238 200.564 210.001C199.037 206.306 198.654 200.051 198.696 194.275C198.228 195.9 197.705 197.571 197.128 199.288C196.623 203.192 196.356 207.024 196.758 209.454C197.871 216.179 202.662 216.524 202.662 216.524C199.685 219.087 194.986 217.336 193.295 211.856C193.142 211.359 193.069 210.734 193.062 210.008C192.108 212.287 191.077 214.63 189.967 217.036C184.203 229.532 178.355 239.174 178.297 239.27C178.021 239.723 177.529 240 176.999 240C176.468 240 175.976 239.723 175.7 239.27C175.642 239.174 169.794 229.532 164.03 217.036C163.129 215.083 162.28 213.171 161.482 211.3C161.453 211.524 161.412 211.731 161.36 211.92C159.825 217.445 155.178 219.329 152.129 216.853C152.129 216.853 156.909 216.371 157.83 209.618C158.126 207.442 157.86 204.165 157.361 200.723C156.633 198.633 155.982 196.608 155.41 194.65C155.745 200.116 155.684 205.87 154.47 209.429C151.593 217.864 145.504 214.772 145.504 214.772C139.304 210.406 142.764 205.095 142.764 205.095C142.764 205.095 147.111 209.778 150.908 204.527C153.036 201.583 153.671 194.302 153.817 188.47C153.771 188.263 153.727 188.057 153.683 187.852C149.389 198.304 142.555 203.639 142.555 203.639C142.555 203.639 141.375 194.91 145.727 184.321C145.181 184.678 144.622 185.034 144.05 185.389C140.381 189.81 136.274 195.466 135.934 198.981C135.311 205.431 141.669 204.791 141.669 204.791C141.669 204.791 140.754 211.063 133.215 210.24C133.215 210.24 126.603 208.534 130.02 200.303C131.553 196.611 135.707 191.917 139.821 187.862C138.341 188.681 136.79 189.492 135.168 190.297C132.049 192.702 129.15 195.223 127.716 197.226C123.748 202.767 126.891 206.399 126.891 206.399C122.974 206.105 120.89 201.545 123.569 196.474C123.812 196.015 124.202 195.521 124.711 195.003C122.425 195.94 120.039 196.867 117.553 197.784C104.641 202.544 93.6882 205.227 93.5793 205.254C93.4636 205.282 93.347 205.296 93.2313 205.297H93.2257H93.22C92.8222 205.297 92.4342 205.14 92.1458 204.852C91.7706 204.477 91.6185 203.934 91.7434 203.418C91.7701 203.31 94.453 192.357 99.2138 179.445C99.9581 177.427 100.709 175.474 101.468 173.587C101.289 173.724 101.113 173.842 100.943 173.939C95.9502 176.761 91.3327 174.807 90.9277 170.9C90.9277 170.9 94.6473 173.939 100.075 169.815C101.823 168.486 103.952 165.981 106.033 163.194C106.996 161.201 107.967 159.309 108.948 157.52C105.32 161.622 101.207 165.649 97.8333 167.307C89.8345 171.236 87.715 164.745 87.715 164.745C86.4177 157.273 92.6197 155.964 92.6197 155.964C92.6197 155.964 92.3817 162.35 98.78 161.321C102.366 160.745 107.965 156.044 112.192 152.024C112.306 151.845 112.42 151.668 112.534 151.492C102.107 155.847 93.5006 154.787 93.5006 154.787C93.5006 154.787 98.8386 147.781 109.405 143.369C108.766 143.236 108.119 143.092 107.464 142.939C101.743 143.471 94.8385 144.566 92.1134 146.811C87.1121 150.931 92.061 154.975 92.061 154.975C92.061 154.975 86.9785 158.762 82.2294 152.849C82.2294 152.849 78.7602 146.968 86.997 143.564C90.6918 142.037 96.9483 141.655 102.725 141.698C101.099 141.229 99.4276 140.706 97.711 140.129C93.8064 139.624 89.9738 139.357 87.5448 139.759C80.8196 140.872 80.4743 145.663 80.4743 145.663C77.9122 142.685 79.6632 137.987 85.1426 136.296C85.6396 136.143 86.2646 136.069 86.9913 136.062C84.7119 135.109 82.3682 134.078 79.9624 132.967C67.4664 127.203 57.8244 121.356 57.7283 121.297C57.2755 121.021 56.999 120.529 56.999 119.999C56.999 119.468 57.2755 118.976 57.7283 118.701C57.8244 118.643 67.4664 112.795 79.9624 107.032C81.9159 106.131 83.8279 105.281 85.6982 104.483C85.4746 104.454 85.2675 104.413 85.0783 104.361C79.5527 102.826 77.669 98.1796 80.1453 95.1308C80.1453 95.1308 80.6269 99.9101 87.3804 100.831C89.5565 101.128 92.833 100.861 96.2755 100.363C98.3658 99.6341 100.391 98.9829 102.35 98.4108C96.884 98.7465 91.1282 98.6853 87.5695 97.4713C79.1349 94.5947 82.2258 88.5058 82.2258 88.5058C86.592 82.3054 91.9038 85.7649 91.9038 85.7649C91.9038 85.7649 87.22 90.1125 92.4717 93.9096C95.4157 96.0379 102.698 96.6721 108.53 96.8186C108.737 96.7728 108.943 96.7281 109.148 96.685C98.6952 92.3913 93.3593 85.5567 93.3593 85.5567C93.3593 85.5567 102.088 84.3772 112.678 88.7284C112.321 88.1825 111.965 87.6239 111.61 87.0518C107.188 83.3822 101.532 79.2746 98.0178 78.9354C91.5676 78.3125 92.208 84.6707 92.208 84.6707C92.208 84.6707 85.9356 83.7553 86.7585 76.2165C86.7585 76.2165 88.4643 69.6045 96.6954 73.0223C100.388 74.5554 105.082 78.7087 109.136 82.823C108.318 81.3423 107.506 79.7906 106.701 78.1686C104.296 75.0504 101.775 72.1522 99.7735 70.7182C94.2315 66.7499 90.5998 69.8933 90.5998 69.8933C90.8928 65.9759 95.4532 63.8918 100.524 66.5711C100.983 66.8142 101.477 67.2043 101.995 67.7136C101.058 65.4275 100.131 63.0412 99.2144 60.5552C94.454 47.643 91.7706 36.6905 91.7439 36.5816C91.619 36.0666 91.7712 35.5228 92.1463 35.1476C92.5215 34.7729 93.0643 34.6213 93.5798 34.7457C93.6887 34.7724 104.642 37.4558 117.554 42.2161C119.572 42.9603 121.524 43.7112 123.411 44.4693C123.273 44.2904 123.156 44.1157 123.059 43.9445C120.237 38.9519 122.191 34.334 126.098 33.9295C126.098 33.9295 123.059 37.649 127.183 43.0759C128.512 44.8244 131.018 46.9527 133.804 49.0348C135.797 49.9969 137.689 50.9688 139.478 51.9489C135.377 48.3214 131.35 44.2087 129.692 40.8346C125.762 32.8358 132.253 30.7163 132.253 30.7163C139.725 29.419 141.034 35.621 141.034 35.621C141.034 35.621 134.648 35.3835 135.677 41.7818C136.254 45.3677 140.954 50.9662 144.975 55.1941C145.153 55.3082 145.331 55.4223 145.506 55.5364C141.151 45.1092 142.211 36.5029 142.211 36.5029C142.211 36.5029 149.217 41.8409 153.629 52.4058C153.763 51.7675 153.906 51.1204 154.059 50.4651C153.527 44.7443 152.432 37.8402 150.188 35.1152C146.067 30.1139 142.024 35.0623 142.024 35.0623C142.024 35.0623 138.236 29.9803 144.149 25.2313C144.149 25.2313 150.031 21.7621 153.434 29.9988C154.961 33.6936 155.343 39.9495 155.301 45.7249C155.769 44.0992 156.292 42.4284 156.87 40.7117C157.374 36.8072 157.641 32.9751 157.239 30.5461C156.126 23.8215 151.335 23.4756 151.335 23.4756C154.313 20.9135 159.011 22.6635 160.702 28.1439C160.855 28.6409 160.929 29.2659 160.936 29.9921C161.889 27.7127 162.921 25.369 164.031 22.9632C169.795 10.4673 175.643 0.825418 175.701 0.729308C175.977 0.275996 176.469 0 176.999 0C177.529 0 178.022 0.275996 178.297 0.729308C178.356 0.825418 184.204 10.4673 189.967 22.9632C190.868 24.9167 191.718 26.8287 192.515 28.6985C192.545 28.4749 192.585 28.2683 192.638 28.0796C194.173 22.5541 198.82 20.6704 201.868 23.1467C201.868 23.1467 197.089 23.6282 196.168 30.3817C195.871 32.5578 196.138 35.8337 196.636 39.2757C197.365 41.366 198.016 43.391 198.588 45.3497C198.253 39.8843 198.313 34.1289 199.527 30.5708C202.404 22.1357 208.493 25.2272 208.493 25.2272C214.693 29.5933 211.233 34.9045 211.233 34.9045C211.233 34.9045 206.886 30.2208 203.09 35.4724C200.961 38.4159 200.327 45.6987 200.18 51.5306C200.226 51.7372 200.271 51.9433 200.314 52.1483C204.607 41.6954 211.442 36.36 211.442 36.36C211.442 36.36 212.622 45.0886 208.27 55.6793C208.816 55.322 209.375 54.9664 209.947 54.6112C213.616 50.1897 217.724 44.533 218.064 41.0186C218.687 34.5684 212.329 35.2083 212.329 35.2083C212.329 35.2083 213.244 28.9364 220.783 29.7593C220.783 29.7593 227.395 31.4651 223.977 39.6961C222.444 43.3884 218.29 48.0829 214.176 52.1376C215.656 51.3193 217.208 50.5073 218.83 49.7019C221.948 47.2976 224.847 44.7761 226.281 42.7742C230.249 37.2322 227.106 33.6001 227.106 33.6001C231.023 33.8935 233.107 38.4539 230.428 43.5241C230.185 43.9841 229.795 44.478 229.285 44.9966C231.572 44.0591 233.958 43.1314 236.444 42.2151C249.356 37.4548 260.31 34.7714 260.418 34.7447C260.934 34.6203 261.477 34.7719 261.852 35.1466C262.227 35.5218 262.379 36.0655 262.254 36.5805C262.227 36.6895 259.544 47.642 254.784 60.5541C254.039 62.5725 253.288 64.525 252.53 66.4117C252.709 66.2745 252.884 66.1594 253.055 66.0628ZM240.722 26.1939C242.756 24.1592 246.056 24.1592 248.091 26.1939C250.127 28.2287 250.127 31.5283 248.091 33.5636C246.056 35.5983 242.757 35.5983 240.722 33.5636C238.687 31.5283 238.687 28.2292 240.722 26.1939ZM283.179 103.939C283.179 101.062 285.512 98.7285 288.391 98.7285C291.268 98.7285 293.601 101.062 293.601 103.939C293.601 106.818 291.268 109.151 288.391 109.151C285.512 109.151 283.179 106.818 283.179 103.939ZM292.283 131.236C294.318 133.271 294.318 136.571 292.283 138.606C290.249 140.641 286.949 140.64 284.914 138.606C282.879 136.571 282.879 133.271 284.914 131.236C286.949 129.202 290.249 129.202 292.283 131.236ZM263.437 183.725C265.472 181.69 268.771 181.69 270.806 183.725C272.841 185.76 272.841 189.059 270.806 191.094C268.772 193.129 265.472 193.129 263.437 191.094C261.402 189.059 261.402 185.76 263.437 183.725ZM250.573 209.465C250.573 212.342 248.239 214.675 245.362 214.675C242.483 214.675 240.151 212.342 240.151 209.465C240.151 206.586 242.483 204.254 245.362 204.254C248.239 204.254 250.573 206.586 250.573 209.465ZM193.06 226.183C195.938 226.183 198.271 228.515 198.271 231.393C198.271 234.271 195.938 236.604 193.06 236.604C190.182 236.604 187.849 234.271 187.849 231.393C187.849 228.515 190.182 226.183 193.06 226.183ZM158.394 227.917C160.429 225.882 163.729 225.882 165.763 227.917C167.799 229.951 167.799 233.251 165.763 235.286C163.729 237.321 160.429 237.321 158.394 235.286C156.359 233.251 156.359 229.951 158.394 227.917ZM113.274 206.44C115.309 208.475 115.309 211.774 113.274 213.809C111.24 215.845 107.94 215.845 105.905 213.809C103.87 211.775 103.87 208.475 105.905 206.44C107.94 204.405 111.24 204.406 113.274 206.44ZM87.5351 183.154C90.4127 183.154 92.7461 185.487 92.7461 188.364C92.7461 191.243 90.4127 193.576 87.5351 193.576C84.6569 193.576 82.3245 191.243 82.3245 188.364C82.3245 185.487 84.6574 183.154 87.5351 183.154ZM70.8169 136.063C70.8169 138.941 68.4835 141.275 65.6058 141.275C62.7276 141.275 60.3948 138.941 60.3948 136.063C60.3948 133.185 62.7276 130.852 65.6058 130.852C68.4835 130.852 70.8169 133.185 70.8169 136.063ZM61.7131 101.397C63.7479 99.3627 67.0475 99.3627 69.0823 101.397C71.1171 103.432 71.1171 106.732 69.0823 108.767C67.0475 110.801 63.7479 110.801 61.7131 108.767C59.6783 106.732 59.6783 103.432 61.7131 101.397ZM195.602 4.7166C197.637 6.75137 197.637 10.051 195.602 12.0857C193.567 14.1205 190.268 14.1205 188.233 12.0857C186.198 10.051 186.198 6.75188 188.233 4.7166C190.267 2.68184 193.567 2.68184 195.602 4.7166ZM90.5587 56.278C88.5244 58.3128 85.2243 58.3128 83.1895 56.278C81.1547 54.2432 81.1547 50.9436 83.1895 48.9084C85.2243 46.8736 88.5239 46.8736 90.5587 48.9084C92.5935 50.9436 92.5935 54.2427 90.5587 56.278ZM160.936 3.39881C163.814 3.39881 166.147 5.73167 166.147 8.60984C166.147 11.4875 163.813 13.8204 160.936 13.8204C158.058 13.8204 155.725 11.4875 155.725 8.60984C155.725 5.73167 158.058 3.39881 160.936 3.39881ZM108.634 25.3279C111.512 25.3279 113.845 27.6608 113.845 30.5389C113.845 33.4166 111.512 35.75 108.634 35.75C105.757 35.75 103.423 33.4166 103.423 30.5389C103.423 27.6608 105.757 25.3279 108.634 25.3279ZM158.152 165.503C158.747 165.656 159.186 166.195 159.186 166.836C159.186 176.537 162.472 190.194 168.688 206.334C171.967 214.844 175.271 221.991 176.998 225.591C178.727 221.985 182.038 214.825 185.318 206.308C191.528 190.18 194.811 176.531 194.811 166.836C194.811 166.195 195.25 165.656 195.844 165.503C196.373 165.189 197.066 165.259 197.52 165.714C211.65 179.843 242.456 191.416 251.658 194.66C248.414 185.458 236.84 154.652 222.712 140.523C222.259 140.07 222.188 139.378 222.5 138.85C222.651 138.254 223.191 137.813 223.834 137.813C233.535 137.813 247.193 134.527 263.333 128.31C271.842 125.032 278.989 121.728 282.589 120.001C278.983 118.271 271.823 114.96 263.306 111.681C247.179 105.471 233.529 102.188 223.834 102.188C223.191 102.188 222.651 101.747 222.5 101.151C222.188 100.623 222.259 99.9316 222.712 99.4778C236.84 85.3491 248.414 54.5429 251.658 45.341C242.456 48.5861 211.65 60.1584 197.52 74.2871C197.067 74.7415 196.374 74.8124 195.846 74.4994C195.251 74.3473 194.811 73.8081 194.811 73.1652C194.811 63.4647 191.525 49.8068 185.308 33.6674C182.03 25.1573 178.726 18.0107 176.999 14.4109C175.269 18.0163 171.958 25.1768 168.678 33.6936C162.468 49.8217 159.186 63.4704 159.186 73.1652C159.186 73.8081 158.745 74.3483 158.149 74.4994C157.621 74.8119 156.93 74.741 156.476 74.2871C142.347 60.1584 111.54 48.5861 102.339 45.341C105.583 54.5429 117.156 85.3496 131.285 99.4778C131.739 99.9322 131.81 100.624 131.497 101.153C131.345 101.748 130.805 102.188 130.163 102.188C120.468 102.188 106.818 105.471 90.6908 111.681C82.1739 114.96 75.0139 118.271 71.4085 120.001C75.0139 121.73 82.1744 125.041 90.6908 128.321C106.818 134.53 120.468 137.814 130.163 137.814C130.805 137.814 131.345 138.253 131.497 138.849C131.81 139.377 131.74 140.069 131.286 140.524C117.152 154.658 105.582 185.461 102.339 194.66C111.541 191.416 142.347 179.843 156.476 165.714C156.931 165.26 157.624 165.19 158.152 165.503ZM156.502 169.483C149.182 176.093 137.911 182.798 122.943 189.44C110.821 194.821 100.648 198.153 100.548 198.186C100.408 198.232 100.263 198.255 100.121 198.255C99.7617 198.255 99.4097 198.113 99.1475 197.851C98.7811 197.485 98.6516 196.944 98.8119 196.451C98.8453 196.349 102.178 186.178 107.559 174.055C114.202 159.088 120.906 147.817 127.516 140.497C103.387 139.26 69.1511 121.989 67.6535 121.228C67.1914 120.993 66.9 120.519 66.901 120.001C66.901 119.483 67.1914 119.008 67.6535 118.774C69.1511 118.013 103.387 100.742 127.516 99.5051C120.906 92.1847 114.202 80.9141 107.559 65.9466C102.178 53.8239 98.8453 43.6516 98.8119 43.5508C98.6516 43.058 98.7811 42.5173 99.1475 42.1508C99.514 41.7838 100.055 41.6543 100.548 41.8152C100.649 41.8481 110.821 45.1806 122.943 50.5612C137.911 57.2047 149.181 63.9093 156.502 70.5188C157.739 46.3889 175.01 12.1546 175.772 10.6569C176.006 10.1949 176.48 9.90399 176.999 9.90399C177.517 9.90399 177.991 10.1949 178.226 10.6569C178.987 12.1546 196.258 46.3894 197.495 70.5188C204.815 63.9093 216.086 57.2047 231.053 50.5612C243.177 45.1806 253.349 41.8481 253.45 41.8152C253.941 41.6548 254.482 41.7838 254.849 42.1508C255.216 42.5173 255.346 43.058 255.184 43.5508C255.152 43.6521 251.819 53.8239 246.439 65.9466C239.795 80.9136 233.091 92.1842 226.482 99.5045C250.611 100.742 284.846 118.013 286.343 118.774C286.805 119.008 287.096 119.483 287.096 120.001C287.096 120.519 286.805 120.993 286.343 121.228C284.846 121.989 250.611 139.26 226.481 140.497C233.091 147.817 239.795 159.088 246.439 174.055C251.819 186.178 255.152 196.35 255.184 196.451C255.346 196.944 255.216 197.485 254.849 197.851C254.587 198.113 254.235 198.255 253.876 198.255C253.733 198.255 253.589 198.232 253.45 198.186C253.349 198.153 243.177 194.821 231.053 189.44C216.086 182.798 204.815 176.093 197.495 169.483C196.258 193.612 178.987 227.847 178.226 229.345C177.991 229.807 177.517 230.097 176.999 230.097C176.48 230.097 176.006 229.807 175.772 229.345C175.01 227.847 157.739 193.612 156.502 169.483ZM231.955 95.6714C246.329 81.2975 256.124 47.7442 258.654 38.346C249.257 40.8762 215.697 50.6753 201.328 65.0446C200.871 65.501 200.196 65.6064 199.639 65.3597C199.064 65.1428 198.655 64.5872 198.655 63.9375C198.655 43.6187 181.855 12.9605 176.999 4.52335C172.142 12.9605 155.342 43.6187 155.342 63.9375C155.342 64.5862 154.935 65.1402 154.363 65.3581C153.804 65.6074 153.127 65.5026 152.668 65.0446C138.301 50.6769 104.743 40.8772 95.3427 38.346C97.8739 47.7458 107.674 81.3037 122.041 95.6714C122.5 96.1304 122.604 96.8093 122.354 97.3675C122.136 97.9385 121.582 98.3435 120.934 98.3435C100.616 98.3435 69.957 115.144 61.5203 120.001C69.957 124.857 100.615 141.657 120.934 141.657C121.584 141.657 122.137 142.064 122.355 142.636C122.604 143.194 122.5 143.873 122.042 144.331C107.674 158.698 97.875 192.256 95.3432 201.655C104.743 199.124 138.302 189.325 152.669 174.958C153.125 174.501 153.799 174.396 154.356 174.641C154.932 174.858 155.342 175.414 155.342 176.064C155.342 196.383 172.142 227.041 176.999 235.479C181.855 227.041 198.655 196.384 198.655 176.064C198.655 175.413 199.065 174.857 199.642 174.641C200.198 174.396 200.872 174.501 201.329 174.957C215.696 189.325 249.255 199.124 258.655 201.655C256.123 192.256 246.323 158.697 231.955 144.33C231.497 143.871 231.393 143.191 231.644 142.632C231.863 142.061 232.416 141.657 233.063 141.657C253.382 141.657 284.041 124.856 292.478 120C284.041 115.143 253.382 98.343 233.063 98.343C232.416 98.343 231.864 97.939 231.645 97.3701C231.393 96.8109 231.496 96.1309 231.955 95.6714ZM113.424 50.2189C109.418 48.8837 104.036 47.0381 104.036 47.0381C104.036 47.0381 105.88 52.4207 107.216 56.4271C108.551 60.4339 109.808 59.9626 109.808 59.9626C109.808 59.9626 108.158 59.7272 110.167 57.8744C111.84 56.333 114.547 57.8893 115.409 58.4546L115.452 58.4125C114.886 57.5506 113.33 54.8436 114.872 53.1706C116.724 51.1616 116.959 52.8114 116.959 52.8114C116.959 52.8114 117.43 51.5542 113.424 50.2189ZM147.96 69.7535C143.726 68.1407 137.603 72.8619 139.685 78.0277C140.581 80.2511 142.312 83.045 144.491 86.0059C139.494 79.7428 133.464 71.853 132.979 69.6661C132.138 65.8849 136.41 66.3747 137.53 67.3554C138.651 68.336 137.848 63.1157 135.85 61.4731C133.85 59.831 129.608 58.5821 127.185 60.7813C125.485 62.3237 125.832 66.0134 128.103 69.991C125.414 66.1681 122.567 61.2341 123.384 58.3919C123.985 56.3022 120.556 54.8564 120.556 54.8564C120.556 54.8564 117.372 52.9727 116.434 55.7784C115.706 57.9515 116.91 59.8079 124.234 67.2803C116.762 59.9559 114.905 58.7527 112.732 59.48C109.927 60.4185 111.81 63.6019 111.81 63.6019C111.81 63.6019 113.256 67.0321 115.346 66.4308C118.188 65.6131 123.121 68.4604 126.944 71.1489C122.967 68.8782 119.278 68.5308 117.735 70.2305C115.536 72.6533 116.785 76.896 118.427 78.8953C120.069 80.8946 125.289 81.6964 124.309 80.5759C123.329 79.4555 122.839 75.1835 126.62 76.0243C128.807 76.51 136.697 82.5398 142.96 87.537C139.999 85.3573 137.205 83.6273 134.982 82.731C129.816 80.6489 125.094 86.7712 126.708 91.0052C128.321 95.2387 132.111 97.7961 135.272 97.7185C135.272 97.7185 130.854 91.3429 136.54 90.8998C139.118 90.6989 152.916 96.8813 154.514 97.6019C154.552 97.6399 154.59 97.6779 154.627 97.7155C154.627 97.7155 154.613 97.6831 154.591 97.6368C154.638 97.6579 154.67 97.6723 154.67 97.6723C154.633 97.6348 154.595 97.5972 154.557 97.5602C153.837 95.9618 147.654 82.163 147.855 79.5855C148.298 73.9001 154.674 78.3176 154.674 78.3176C154.751 75.1568 152.193 71.3663 147.96 69.7535ZM158.732 87.2189C158.732 88.7911 157.458 90.0652 155.885 90.0652C154.314 90.0652 153.039 88.7911 153.039 87.2189C153.039 85.6472 154.314 84.372 155.885 84.372C157.458 84.372 158.732 85.6467 158.732 87.2189ZM146.594 96.5693C147.706 97.6815 147.706 99.4835 146.594 100.595C145.483 101.706 143.68 101.706 142.569 100.595C141.458 99.483 141.458 97.681 142.569 96.5693C143.681 95.4576 145.483 95.4576 146.594 96.5693ZM140.901 109.736C142.013 110.848 142.013 112.65 140.901 113.761C139.79 114.873 137.988 114.873 136.876 113.761C135.765 112.65 135.765 110.848 136.876 109.736C137.988 108.624 139.79 108.624 140.901 109.736ZM138.93 124.931C140.502 124.931 141.777 126.205 141.777 127.777C141.777 129.349 140.502 130.624 138.93 130.624C137.359 130.624 136.084 129.35 136.084 127.777C136.084 126.205 137.358 124.931 138.93 124.931ZM73.8128 120C73.8128 120 78.9231 122.503 82.7007 124.391C86.4773 126.279 87.0329 125.058 87.0329 125.058C87.0329 125.058 85.7002 126.057 85.8107 123.327C85.9032 121.054 88.9176 120.24 89.9271 120.031V119.971C88.9176 119.762 85.9032 118.948 85.8107 116.675C85.7002 113.945 87.0329 114.945 87.0329 114.945C87.0329 114.945 86.4773 113.723 82.7007 115.612C78.9226 117.5 73.8128 120 73.8128 120ZM120.934 105.004C116.8 106.857 115.81 114.525 120.934 116.705C123.14 117.644 126.339 118.396 129.974 118.949C122.011 118.054 112.169 116.739 110.278 115.536C107.011 113.456 110.378 110.782 111.863 110.683C113.348 110.583 109.091 107.46 106.515 107.712C103.94 107.964 100.057 110.081 99.8989 113.35C99.7884 115.642 102.642 118.006 107.061 119.212C102.456 118.411 96.9545 116.934 95.522 114.347C94.4695 112.444 91.0218 113.847 91.0218 113.847C91.0218 113.847 87.439 114.766 88.7588 117.414C89.7811 119.464 91.9444 119.927 102.408 120.031C91.9444 120.136 89.7811 120.598 88.7588 122.648C87.439 125.296 91.0218 126.215 91.0218 126.215C91.0218 126.215 94.4695 127.618 95.522 125.715C96.9539 123.127 102.455 121.652 107.061 120.85C102.642 122.057 99.7884 124.419 99.8989 126.713C100.057 129.98 103.94 132.098 106.515 132.35C109.091 132.602 113.349 129.478 111.863 129.379C110.378 129.28 107.011 126.606 110.278 124.527C112.169 123.323 122.011 122.008 129.974 121.113C126.339 121.666 123.14 122.418 120.934 123.357C115.81 125.538 116.8 133.205 120.934 135.059C125.069 136.912 129.557 136.04 131.737 133.75C131.737 133.75 124.105 132.365 127.812 128.032C129.493 126.066 143.621 120.681 145.261 120.061C145.314 120.061 145.368 120.061 145.421 120.061C145.421 120.061 145.388 120.05 145.34 120.031C145.388 120.013 145.421 120.001 145.421 120.001C145.368 120.001 145.315 120.001 145.261 120.001C143.621 119.381 129.493 113.995 127.812 112.031C124.105 107.698 131.737 106.312 131.737 106.312C129.556 104.022 125.068 103.15 120.934 105.004ZM144.215 138.267C145.787 138.267 147.062 139.541 147.062 141.113C147.062 142.685 145.788 143.959 144.215 143.959C142.643 143.959 141.369 142.685 141.369 141.113C141.369 139.541 142.643 138.267 144.215 138.267ZM153.566 150.405C154.678 149.293 156.48 149.293 157.591 150.405C158.703 151.516 158.703 153.319 157.591 154.43C156.48 155.542 154.678 155.542 153.566 154.43C152.455 153.318 152.455 151.516 153.566 150.405ZM107.215 183.575C105.88 187.581 104.034 192.963 104.034 192.963C104.034 192.963 109.418 191.118 113.424 189.783C117.43 188.447 116.958 187.191 116.958 187.191C116.958 187.191 116.723 188.84 114.871 186.831C113.329 185.159 114.885 182.451 115.451 181.589L115.408 181.547C114.546 182.113 111.839 183.669 110.166 182.127C108.157 180.275 109.807 180.039 109.807 180.039C109.807 180.039 108.55 179.568 107.215 183.575ZM126.75 149.039C125.138 153.273 129.858 159.395 135.024 157.313C137.248 156.417 140.041 154.687 143.003 152.507C136.739 157.505 128.849 163.534 126.662 164.02C122.881 164.861 123.371 160.589 124.351 159.468C125.332 158.348 120.112 159.15 118.469 161.149C116.827 163.148 115.578 167.391 117.778 169.814C119.321 171.513 123.01 171.166 126.987 168.895C123.164 171.584 118.23 174.432 115.389 173.614C113.299 173.013 111.852 176.443 111.852 176.443C111.852 176.443 109.969 179.626 112.775 180.565C114.947 181.292 116.804 180.089 124.276 172.765C116.952 180.237 115.749 182.094 116.476 184.266C117.415 187.071 120.599 185.188 120.599 185.188C120.599 185.188 124.028 183.742 123.427 181.653C122.61 178.81 125.456 173.876 128.146 170.054C125.875 174.032 125.528 177.72 127.228 179.263C129.65 181.463 133.893 180.214 135.892 178.571C137.892 176.929 138.693 171.709 137.573 172.689C136.452 173.67 132.181 174.16 133.021 170.378C133.507 168.191 139.537 160.301 144.535 154.039C142.355 157 140.625 159.793 139.728 162.017C137.647 167.183 143.769 171.904 148.003 170.291C152.237 168.679 154.794 164.888 154.717 161.727C154.717 161.727 148.34 166.144 147.897 160.459C147.697 157.881 153.878 144.082 154.599 142.484C154.637 142.446 154.676 142.409 154.713 142.372C154.713 142.372 154.681 142.386 154.635 142.407C154.655 142.361 154.67 142.329 154.67 142.329C154.633 142.366 154.595 142.405 154.558 142.442C152.959 143.163 139.162 149.345 136.583 149.145C130.898 148.702 135.315 142.326 135.315 142.326C132.154 142.248 128.362 144.805 126.75 149.039ZM166.734 156.097C167.845 154.986 169.648 154.986 170.758 156.097C171.87 157.209 171.87 159.011 170.758 160.122C169.647 161.234 167.845 161.234 166.734 160.122C165.622 159.011 165.622 157.208 166.734 156.097ZM181.929 158.068C181.929 156.496 183.202 155.222 184.775 155.222C186.347 155.222 187.621 156.496 187.621 158.068C187.621 159.64 186.347 160.914 184.775 160.914C183.203 160.914 181.929 159.64 181.929 158.068ZM162.001 176.064C163.855 180.199 171.523 181.189 173.703 176.064C174.641 173.858 175.393 170.66 175.946 167.024C175.051 174.986 173.736 184.829 172.533 186.719C170.454 189.988 167.779 186.621 167.681 185.135C167.582 183.65 164.458 187.908 164.71 190.483C164.962 193.057 167.079 196.941 170.347 197.099C172.641 197.21 175.003 194.356 176.21 189.938C175.408 194.542 173.933 200.044 171.345 201.476C169.442 202.529 170.845 205.976 170.845 205.976C170.845 205.976 171.764 209.559 174.412 208.239C176.462 207.217 176.924 205.054 177.028 194.591C177.133 205.054 177.595 207.217 179.645 208.239C182.293 209.559 183.212 205.976 183.212 205.976C183.212 205.976 184.615 202.529 182.712 201.476C180.124 200.045 178.649 194.543 177.847 189.938C179.054 194.356 181.417 197.21 183.71 197.099C186.978 196.941 189.095 193.057 189.347 190.483C189.6 187.908 186.476 183.649 186.376 185.135C186.277 186.621 183.603 189.988 181.524 186.719C180.321 184.829 179.005 174.987 178.11 167.024C178.663 170.66 179.415 173.858 180.354 176.064C182.535 181.189 190.202 180.199 192.055 176.064C193.909 171.93 193.037 167.442 190.747 165.26C190.747 165.26 189.362 172.893 185.028 169.186C183.064 167.505 177.678 153.377 177.058 151.737C177.058 151.684 177.059 151.63 177.059 151.577C177.059 151.577 177.046 151.61 177.028 151.658C177.01 151.61 176.997 151.577 176.997 151.577C176.997 151.63 176.998 151.684 176.998 151.737C176.378 153.377 170.992 167.505 169.027 169.186C164.694 172.893 163.309 165.26 163.309 165.26C161.019 167.442 160.147 171.93 162.001 176.064ZM176.997 223.185C176.997 223.185 179.5 218.075 181.389 214.298C183.278 210.52 182.055 209.965 182.055 209.965C182.055 209.965 183.055 211.298 180.325 211.187C178.052 211.094 177.238 208.08 177.029 207.071H176.969C176.76 208.08 175.945 211.094 173.674 211.187C170.942 211.298 171.943 209.965 171.943 209.965C171.943 209.965 170.721 210.52 172.609 214.298C174.498 218.075 176.997 223.185 176.997 223.185ZM240.573 189.783C244.579 191.118 249.961 192.963 249.961 192.963C249.961 192.963 248.116 187.581 246.781 183.574C245.446 179.568 244.189 180.039 244.189 180.039C244.189 180.039 245.839 180.274 243.83 182.127C242.157 183.668 239.45 182.112 238.588 181.547L238.545 181.589C239.111 182.451 240.668 185.158 239.126 186.831C237.273 188.84 237.037 187.19 237.037 187.19C237.037 187.19 236.566 188.447 240.573 189.783ZM206.037 170.247C210.271 171.861 216.393 167.14 214.312 161.974C213.415 159.75 211.685 156.956 209.505 153.995C214.503 160.259 220.532 168.148 221.019 170.335C221.859 174.117 217.588 173.627 216.467 172.647C215.347 171.666 216.149 176.886 218.148 178.529C220.147 180.17 224.39 181.42 226.813 179.221C228.512 177.678 228.164 173.989 225.894 170.011C228.583 173.833 231.43 178.768 230.612 181.61C230.012 183.7 233.442 185.146 233.442 185.146C233.442 185.146 236.625 187.029 237.564 184.223C238.291 182.051 237.088 180.194 229.763 172.722C237.236 180.046 239.092 181.249 241.265 180.522C244.07 179.583 242.187 176.4 242.187 176.4C242.187 176.4 240.741 172.969 238.651 173.571C235.809 174.388 230.876 171.541 227.052 168.852C231.029 171.123 234.718 171.47 236.262 169.77C238.461 167.348 237.212 163.105 235.57 161.106C233.928 159.106 228.707 158.305 229.687 159.425C230.667 160.545 231.158 164.816 227.377 163.977C225.19 163.49 217.3 157.461 211.036 152.463C213.998 154.644 216.791 156.374 219.015 157.27C224.18 159.351 228.902 153.23 227.289 148.996C225.676 144.762 221.886 142.205 218.725 142.282C218.725 142.282 223.143 148.658 217.457 149.101C214.879 149.302 201.08 143.12 199.482 142.399C199.445 142.361 199.407 142.323 199.37 142.285C199.37 142.285 199.385 142.318 199.406 142.364C199.359 142.343 199.327 142.328 199.327 142.328C199.364 142.366 199.403 142.403 199.44 142.441C200.161 144.039 206.343 157.837 206.143 160.415C205.7 166.101 199.323 161.683 199.323 161.683C199.246 164.844 201.803 168.636 206.037 170.247ZM195.264 152.783C195.264 151.21 196.539 149.936 198.11 149.936C199.683 149.936 200.957 151.21 200.957 152.783C200.957 154.354 199.683 155.629 198.11 155.629C196.539 155.629 195.264 154.355 195.264 152.783ZM207.402 143.432C206.291 142.32 206.291 140.518 207.402 139.407C208.514 138.295 210.317 138.295 211.427 139.407C212.539 140.518 212.539 142.32 211.427 143.432C210.316 144.543 208.514 144.543 207.402 143.432ZM280.184 120.001C280.184 120.001 275.073 117.499 271.296 115.61C267.519 113.721 266.963 114.943 266.963 114.943C266.963 114.943 268.297 113.944 268.186 116.674C268.093 118.947 265.079 119.761 264.069 119.97V120.03C265.079 120.239 268.093 121.053 268.186 123.326C268.297 126.056 266.963 125.056 266.963 125.056C266.963 125.056 267.519 126.278 271.296 124.389C275.074 122.501 280.184 120.001 280.184 120.001ZM233.063 134.997C237.197 133.144 238.187 125.475 233.063 123.295C230.857 122.356 227.658 121.605 224.022 121.052C231.985 121.947 241.828 123.262 243.718 124.465C246.986 126.545 243.619 129.219 242.133 129.317C240.649 129.416 244.906 132.541 247.481 132.288C250.056 132.036 253.94 129.92 254.097 126.651C254.208 124.358 251.354 121.995 246.935 120.789C251.54 121.59 257.042 123.065 258.474 125.653C259.526 127.556 262.975 126.153 262.975 126.153C262.975 126.153 266.557 125.234 265.238 122.586C264.215 120.536 262.052 120.074 251.589 119.969C262.052 119.865 264.215 119.402 265.238 117.352C266.557 114.705 262.975 113.785 262.975 113.785C262.975 113.785 259.527 112.383 258.474 114.285C257.043 116.873 251.541 118.349 246.936 119.15C251.354 117.943 254.208 115.581 254.097 113.288C253.94 110.02 250.056 107.903 247.481 107.65C244.906 107.398 240.649 110.522 242.133 110.621C243.619 110.72 246.986 113.394 243.718 115.474C241.828 116.677 231.985 117.992 224.022 118.887C227.658 118.334 230.857 117.583 233.063 116.644C238.187 114.463 237.197 106.795 233.063 104.942C228.928 103.088 224.44 103.961 222.259 106.25C222.259 106.25 229.891 107.635 226.184 111.969C224.503 113.934 210.375 119.319 208.735 119.939C208.682 119.939 208.629 119.939 208.575 119.939C208.575 119.939 208.608 119.951 208.656 119.969C208.608 119.987 208.575 120 208.575 120C208.628 120 208.682 119.999 208.735 119.999C210.375 120.62 224.503 126.004 226.184 127.97C229.891 132.303 222.259 133.688 222.259 133.688C224.44 135.978 228.928 136.851 233.063 134.997ZM213.096 130.264C211.984 129.153 211.984 127.351 213.096 126.24C214.207 125.128 216.009 125.128 217.12 126.24C218.232 127.351 218.232 129.153 217.12 130.264C216.008 131.376 214.206 131.376 213.096 130.264ZM215.066 115.07C213.494 115.07 212.219 113.796 212.219 112.223C212.219 110.652 213.493 109.377 215.066 109.377C216.638 109.377 217.912 110.651 217.912 112.223C217.912 113.796 216.638 115.07 215.066 115.07ZM246.781 56.426C248.116 52.4197 249.962 47.0381 249.962 47.0381C249.962 47.0381 244.579 48.8826 240.573 50.2179C236.566 51.5532 237.037 52.8103 237.037 52.8103C237.037 52.8103 237.273 51.1605 239.126 53.1696C240.668 54.842 239.111 57.5495 238.545 58.4115L238.588 58.4536C239.45 57.8882 242.157 56.332 243.83 57.8733C245.839 59.7262 244.189 59.9616 244.189 59.9616C244.189 59.9616 245.445 60.4329 246.781 56.426ZM227.246 90.962C228.859 86.7275 224.138 80.6058 218.972 82.6868C216.748 83.5831 213.954 85.3131 210.993 87.4933C217.257 82.4956 225.146 76.4663 227.333 75.9796C231.115 75.1398 230.625 79.4113 229.644 80.5312C228.664 81.6517 233.884 80.8504 235.526 78.8511C237.169 76.8518 238.417 72.6086 236.219 70.1863C234.675 68.4866 230.986 68.8335 227.009 71.1047C230.831 68.4152 235.765 65.5683 238.607 66.3855C240.697 66.9869 242.143 63.5572 242.143 63.5572C242.143 63.5572 244.027 60.3737 241.221 59.4347C239.049 58.708 237.192 59.9107 229.719 67.2351C237.045 59.7627 238.247 57.9062 237.52 55.7337C236.581 52.928 233.398 54.8117 233.398 54.8117C233.398 54.8117 229.967 56.258 230.569 58.3472C231.386 61.1889 228.54 66.1229 225.85 69.9457C228.121 65.9682 228.468 62.2795 226.769 60.7361C224.346 58.5374 220.103 59.7858 218.104 61.4284C216.104 63.0705 215.303 68.2908 216.423 67.3112C217.543 66.3305 221.815 65.8402 220.975 69.6219C220.489 71.8093 214.459 79.6991 209.461 85.9617C211.642 83.0003 213.372 80.2064 214.268 77.983C216.349 72.8177 210.228 68.096 205.994 69.7088C201.76 71.3216 199.203 75.112 199.28 78.2734C199.28 78.2734 205.656 73.8559 206.099 79.5419C206.299 82.1199 200.118 95.9176 199.396 97.516C199.359 97.5541 199.321 97.5916 199.283 97.6286C199.283 97.6286 199.316 97.6142 199.362 97.5931C199.341 97.6389 199.327 97.6712 199.327 97.6712C199.364 97.6337 199.402 97.5957 199.439 97.5582C201.037 96.8371 214.835 90.6552 217.414 90.8556C223.099 91.2987 218.682 97.6749 218.682 97.6749C221.843 97.752 225.634 95.1955 227.246 90.962ZM209.781 101.735C208.209 101.735 206.934 100.46 206.934 98.8878C206.934 97.3161 208.209 96.0415 209.781 96.0415C211.353 96.0415 212.627 97.3156 212.627 98.8878C212.627 100.46 211.353 101.735 209.781 101.735ZM200.429 89.5964C199.318 90.7076 197.516 90.7076 196.405 89.5964C195.293 88.4847 195.293 86.6828 196.405 85.5716C197.517 84.4599 199.319 84.4599 200.429 85.5716C201.541 86.6833 201.541 88.4853 200.429 89.5964ZM172.068 81.9333C172.068 83.505 170.793 84.7796 169.221 84.7796C167.65 84.7796 166.375 83.5055 166.375 81.9333C166.375 80.3616 167.649 79.087 169.221 79.087C170.793 79.087 172.068 80.3611 172.068 81.9333ZM187.262 83.9043C186.151 85.0155 184.349 85.0155 183.237 83.9043C182.126 82.7921 182.126 80.9902 183.237 79.879C184.349 78.7673 186.151 78.7673 187.262 79.879C188.374 80.9902 188.374 82.7927 187.262 83.9043ZM176.999 16.8162C176.999 16.8162 174.497 21.9265 172.608 25.7036C170.72 29.4807 171.942 30.0363 171.942 30.0363C171.942 30.0363 170.942 28.7036 173.673 28.8141C175.945 28.9066 176.759 31.921 176.968 32.9304H177.028C177.237 31.921 178.052 28.9066 180.324 28.8141C183.054 28.7036 182.054 30.0363 182.054 30.0363C182.054 30.0363 183.277 29.4807 181.388 25.7036C179.499 21.9265 176.999 16.8162 176.999 16.8162ZM191.995 63.937C190.142 59.8027 182.474 58.8123 180.293 63.937C179.355 66.1429 178.603 69.3418 178.051 72.9771C178.945 65.0143 180.261 55.172 181.464 53.2816C183.543 50.0134 186.217 53.3808 186.316 54.8662C186.415 56.3515 189.539 52.0934 189.287 49.5184C189.034 46.9435 186.917 43.0605 183.65 42.9022C181.356 42.7912 178.993 45.6452 177.787 50.0637C178.588 45.4592 180.064 39.9572 182.652 38.5253C184.554 37.4728 183.152 34.0251 183.152 34.0251C183.152 34.0251 182.232 30.4423 179.585 31.7622C177.534 32.7844 177.071 34.9477 176.968 45.4103C176.863 34.9477 176.4 32.7844 174.349 31.7622C171.703 30.4423 170.783 34.0251 170.783 34.0251C170.783 34.0251 169.381 37.4728 171.283 38.5253C173.871 39.9567 175.347 45.4587 176.148 50.0637C174.941 45.6452 172.579 42.7912 170.285 42.9022C167.017 43.0605 164.9 46.9435 164.647 49.5184C164.395 52.0934 167.519 56.352 167.619 54.8662C167.718 53.3808 170.391 50.0134 172.472 53.2816C173.675 55.172 174.989 65.0143 175.885 72.9771C175.332 69.3418 174.581 66.1429 173.641 63.937C171.46 58.8123 163.793 59.8027 161.94 63.937C160.086 68.0713 160.958 72.5597 163.248 74.7405C163.248 74.7405 164.634 67.1087 168.966 70.8153C170.932 72.496 176.317 86.6247 176.938 88.2643C176.938 88.3172 176.937 88.3717 176.937 88.4246C176.937 88.4246 176.95 88.3912 176.968 88.3434C176.985 88.3912 176.998 88.4246 176.998 88.4246C176.998 88.3717 176.997 88.3172 176.997 88.2643C177.618 86.6247 183.004 72.496 184.968 70.8153C189.302 67.1082 190.687 74.7405 190.687 74.7405C192.976 72.5597 193.849 68.0713 191.995 63.937ZM160.607 80.4958C160.607 80.4958 169.216 87.0544 173.357 100.022C175.078 105.413 176.324 110.449 177.193 114.495C178.013 110.469 179.189 105.484 180.824 100.151C184.811 87.1356 193.342 80.4752 193.342 80.4752C193.342 80.4752 194.792 91.2005 188.55 103.298C185.955 108.327 183.275 112.77 181.028 116.246C184.455 113.979 188.811 111.286 193.739 108.669C205.762 102.286 216.504 103.609 216.504 103.609C216.504 103.609 209.945 112.217 196.978 116.358C191.586 118.08 186.549 119.326 182.503 120.195C186.529 121.015 191.514 122.192 196.849 123.826C209.863 127.813 216.523 136.344 216.523 136.344C216.523 136.344 205.798 137.793 193.701 131.552C188.671 128.957 184.228 126.277 180.753 124.031C183.02 127.457 185.713 131.814 188.33 136.742C194.713 148.764 193.39 159.506 193.39 159.506C193.39 159.506 184.781 152.948 180.641 139.98C178.919 134.589 177.673 129.552 176.804 125.506C175.984 129.532 174.808 134.517 173.174 139.851C169.186 152.866 160.655 159.526 160.655 159.526C160.655 159.526 159.206 148.801 165.447 136.704C168.042 131.675 170.722 127.232 172.968 123.757C169.542 126.024 165.186 128.716 160.258 131.332C148.235 137.716 137.493 136.393 137.493 136.393C137.493 136.393 144.052 127.784 157.019 123.643C162.41 121.922 167.447 120.676 171.493 119.807C167.467 118.987 162.482 117.811 157.148 116.176C144.133 112.189 137.473 103.658 137.473 103.658C137.473 103.658 148.198 102.208 160.295 108.449C165.325 111.044 169.768 113.725 173.243 115.971C170.976 112.545 168.283 108.188 165.667 103.26C159.284 91.2375 160.607 80.4958 160.607 80.4958Z" fill="url(#paint0_linear_215_1035)"/>
<path d="M104.665 178.474C104.254 178.182 103.805 178.046 103.043 178.008C102.691 177.988 102.496 177.988 102.202 177.988C102.124 177.988 102.085 178.027 102.085 178.125V182.733C102.085 184.016 102.144 184.346 102.769 184.599C103.297 184.813 103.746 184.833 104.196 184.833C105.076 184.833 106.561 184.365 106.561 182.343C106.561 181.138 106.15 179.505 104.665 178.474H104.665ZM102.085 176.919C102.085 177.074 102.144 177.114 102.222 177.133C102.398 177.172 102.691 177.191 103.141 177.191C103.786 177.191 104.215 177.113 104.548 176.821C105.056 176.413 105.349 175.713 105.349 174.76C105.349 173.458 104.587 171.746 102.906 171.746C102.633 171.746 102.457 171.746 102.262 171.786C102.124 171.824 102.085 171.902 102.085 172.116V176.919L102.085 176.919ZM99.7396 176.589C99.7396 173.633 99.7396 173.089 99.7003 172.466C99.661 171.806 99.505 171.494 98.8598 171.358C98.7038 171.319 98.3711 171.3 98.0978 171.3C97.8829 171.3 97.7656 171.261 97.7656 171.124C97.7656 170.988 97.9025 170.949 98.1954 170.949C99.2312 170.949 100.462 171.008 100.853 171.008C101.811 171.008 102.573 170.949 103.238 170.949C106.775 170.949 107.4 172.836 107.4 173.866C107.4 175.46 106.482 176.414 105.407 177.269C107.01 177.813 108.964 179.194 108.964 181.469C108.964 183.55 107.342 185.708 103.746 185.708C103.511 185.708 102.945 185.669 102.378 185.649C101.791 185.61 101.205 185.591 100.912 185.591C100.697 185.591 100.267 185.591 99.7974 185.61C99.3485 185.61 98.8402 185.649 98.4496 185.649C98.1949 185.649 98.0585 185.591 98.0585 185.455C98.0585 185.357 98.1365 185.299 98.3711 185.299C98.6645 185.299 98.8991 185.26 99.0752 185.222C99.4658 185.143 99.5634 184.716 99.6414 184.152C99.7391 183.335 99.7391 181.799 99.7391 180.01V176.588L99.7396 176.589Z" fill="#1E1A16"/>
<path d="M128.176 178.669C128.176 174.313 125.655 171.611 122.449 171.611C120.201 171.611 117.642 172.855 117.642 177.696C117.642 181.741 119.889 184.949 123.641 184.949C125.009 184.949 128.176 184.288 128.176 178.669ZM114.945 178.3C114.945 174.974 117.153 170.677 123.016 170.677C127.883 170.677 130.912 173.497 130.912 177.949C130.912 182.402 127.785 185.921 122.82 185.921C117.212 185.921 114.944 181.741 114.944 178.299L114.945 178.3Z" fill="#1E1A16"/>
<path d="M138.259 176.589C138.259 173.634 138.259 173.09 138.22 172.467C138.181 171.806 138.024 171.495 137.379 171.359C137.223 171.319 136.891 171.3 136.617 171.3C136.402 171.3 136.285 171.261 136.285 171.125C136.285 170.99 136.422 170.951 136.715 170.951C137.751 170.951 138.982 171.009 139.568 171.009C140.037 171.009 141.269 170.951 141.972 170.951C142.266 170.951 142.402 170.99 142.402 171.125C142.402 171.261 142.285 171.3 142.09 171.3C141.874 171.3 141.757 171.319 141.522 171.359C140.995 171.456 140.838 171.787 140.799 172.467C140.76 173.09 140.76 173.634 140.76 176.589V179.311C140.76 182.131 141.327 183.317 142.284 184.094C143.164 184.813 144.063 184.892 144.727 184.892C145.587 184.892 146.643 184.619 147.424 183.842C148.499 182.771 148.558 181.022 148.558 179.02V176.589C148.558 173.634 148.558 173.09 148.518 172.467C148.479 171.806 148.324 171.495 147.678 171.359C147.521 171.319 147.19 171.3 146.974 171.3C146.759 171.3 146.642 171.261 146.642 171.125C146.642 170.99 146.779 170.951 147.053 170.951C148.049 170.951 149.28 171.009 149.3 171.009C149.534 171.009 150.766 170.951 151.528 170.951C151.802 170.951 151.939 170.99 151.939 171.125C151.939 171.261 151.821 171.3 151.587 171.3C151.372 171.3 151.255 171.319 151.02 171.359C150.493 171.456 150.336 171.787 150.298 172.467C150.258 173.09 150.258 173.634 150.258 176.589V178.67C150.258 180.828 150.043 183.122 148.401 184.522C147.013 185.708 145.606 185.923 144.336 185.923C143.3 185.923 141.424 185.864 139.997 184.581C139 183.686 138.258 182.247 138.258 179.428V176.589H138.259Z" fill="#1E1A16"/>
<path d="M162.259 172.038L159.348 172.115C158.214 172.154 157.745 172.252 157.452 172.68C157.256 172.971 157.158 173.205 157.12 173.36C157.08 173.516 157.021 173.593 156.905 173.593C156.768 173.593 156.729 173.496 156.729 173.283C156.729 172.971 157.1 171.202 157.14 171.046C157.198 170.793 157.256 170.677 157.374 170.677C157.53 170.677 157.726 170.871 158.214 170.91C158.781 170.968 159.523 171.007 160.169 171.007H167.908C168.534 171.007 168.964 170.949 169.257 170.91C169.55 170.851 169.706 170.812 169.785 170.812C169.922 170.812 169.941 170.929 169.941 171.221C169.941 171.63 169.882 172.971 169.882 173.477C169.863 173.671 169.824 173.788 169.707 173.788C169.551 173.788 169.511 173.691 169.492 173.399L169.472 173.185C169.433 172.68 168.906 172.135 167.166 172.096L164.704 172.038V180.009C164.704 181.799 164.704 183.335 164.801 184.17C164.86 184.714 164.977 185.143 165.563 185.221C165.837 185.259 166.267 185.298 166.561 185.298C166.775 185.298 166.873 185.356 166.873 185.454C166.873 185.59 166.717 185.648 166.502 185.648C165.212 185.648 163.981 185.59 163.434 185.59C162.984 185.59 161.753 185.648 160.971 185.648C160.717 185.648 160.58 185.59 160.58 185.454C160.58 185.356 160.658 185.298 160.893 185.298C161.187 185.298 161.421 185.259 161.596 185.221C161.988 185.143 162.104 184.714 162.164 184.151C162.261 183.335 162.261 181.799 162.261 180.009V172.038L162.259 172.038Z" fill="#1E1A16"/>
<path d="M177.443 176.588C177.443 173.633 177.443 173.089 177.404 172.466C177.365 171.805 177.17 171.475 176.74 171.377C176.525 171.319 176.271 171.299 176.036 171.299C175.841 171.299 175.724 171.26 175.724 171.105C175.724 170.989 175.88 170.949 176.193 170.949C176.936 170.949 178.167 171.008 178.733 171.008C179.222 171.008 180.375 170.949 181.117 170.949C181.372 170.949 181.528 170.989 181.528 171.105C181.528 171.26 181.411 171.299 181.215 171.299C181.02 171.299 180.863 171.318 180.629 171.358C180.101 171.455 179.945 171.786 179.906 172.466C179.867 173.089 179.867 173.633 179.867 176.588V180.011C179.867 181.896 179.867 183.432 179.945 184.268C180.003 184.793 180.141 185.143 180.727 185.222C181 185.26 181.431 185.299 181.723 185.299C181.938 185.299 182.036 185.357 182.036 185.454C182.036 185.591 181.879 185.649 181.665 185.649C180.375 185.649 179.144 185.591 178.616 185.591C178.166 185.591 176.935 185.649 176.153 185.649C175.899 185.649 175.762 185.591 175.762 185.454C175.762 185.357 175.84 185.299 176.075 185.299C176.368 185.299 176.603 185.26 176.779 185.222C177.17 185.143 177.287 184.812 177.346 184.249C177.443 183.433 177.443 181.897 177.443 180.011V176.589V176.588Z" fill="#1E1A16"/>
<path d="M201.05 178.572C201.05 173.866 198.119 171.611 195.422 171.611C192.861 171.611 190.575 173.244 190.575 177.756C190.575 182.383 193.39 184.949 196.536 184.949C198.099 184.949 201.05 184.269 201.05 178.572V178.572ZM198.881 185.416C198.099 185.707 196.848 185.921 195.813 185.921C190.087 185.921 187.858 181.702 187.858 178.202C187.858 175.033 190.145 170.677 195.872 170.677C200.543 170.677 203.787 173.496 203.787 178.046C203.787 181.468 201.617 183.626 200.386 184.443L204.314 186.446C208.438 188.545 211.037 188.759 212.366 188.759C213.383 188.759 214.829 188.604 216.178 188.079C216.295 188.039 216.393 187.981 216.471 187.981C216.569 187.981 216.647 188.059 216.647 188.157C216.647 188.273 216.549 188.331 216.412 188.389C215.24 188.954 213.031 189.848 210.217 189.848C207.266 189.848 205.175 189.089 201.95 187.203L198.882 185.414L198.881 185.416Z" fill="#1E1A16"/>
<path d="M211.23 176.589C211.23 173.634 211.23 173.09 211.191 172.467C211.152 171.806 210.995 171.495 210.351 171.359C210.194 171.319 209.862 171.3 209.588 171.3C209.373 171.3 209.256 171.261 209.256 171.125C209.256 170.99 209.393 170.951 209.686 170.951C210.721 170.951 211.953 171.009 212.539 171.009C213.008 171.009 214.24 170.951 214.943 170.951C215.237 170.951 215.373 170.99 215.373 171.125C215.373 171.261 215.256 171.3 215.06 171.3C214.846 171.3 214.728 171.319 214.494 171.359C213.966 171.456 213.81 171.787 213.77 172.467C213.731 173.09 213.731 173.634 213.731 176.589V179.311C213.731 182.131 214.298 183.317 215.256 184.094C216.134 184.813 217.034 184.892 217.699 184.892C218.559 184.892 219.614 184.619 220.395 183.842C221.47 182.771 221.529 181.022 221.529 179.02V176.589C221.529 173.634 221.529 173.09 221.49 172.467C221.451 171.806 221.294 171.495 220.65 171.359C220.493 171.319 220.161 171.3 219.945 171.3C219.731 171.3 219.614 171.261 219.614 171.125C219.614 170.99 219.751 170.951 220.024 170.951C221.021 170.951 222.252 171.009 222.272 171.009C222.506 171.009 223.737 170.951 224.5 170.951C224.774 170.951 224.911 170.99 224.911 171.125C224.911 171.261 224.793 171.3 224.559 171.3C224.344 171.3 224.227 171.319 223.991 171.359C223.464 171.456 223.308 171.787 223.269 172.467C223.23 173.09 223.23 173.634 223.23 176.589V178.67C223.23 180.828 223.015 183.122 221.373 184.522C219.985 185.708 218.579 185.923 217.308 185.923C216.272 185.923 214.396 185.864 212.969 184.581C211.972 183.686 211.23 182.247 211.23 179.428V176.589V176.589Z" fill="#1E1A16"/>
<path d="M232.631 176.588C232.631 173.633 232.631 173.089 232.592 172.466C232.553 171.805 232.396 171.494 231.751 171.358C231.595 171.319 231.263 171.3 230.989 171.3C230.774 171.3 230.657 171.261 230.657 171.124C230.657 170.989 230.794 170.95 231.087 170.95C231.615 170.95 232.181 170.969 232.67 170.969C233.178 170.989 233.628 171.008 233.901 171.008C234.527 171.008 238.416 171.008 238.787 170.989C239.159 170.95 239.471 170.911 239.627 170.872C239.726 170.853 239.842 170.794 239.941 170.794C240.038 170.794 240.058 170.872 240.058 170.969C240.058 171.105 239.96 171.339 239.901 172.234C239.882 172.428 239.842 173.284 239.803 173.516C239.784 173.613 239.745 173.731 239.608 173.731C239.471 173.731 239.432 173.633 239.432 173.458C239.432 173.322 239.413 172.992 239.315 172.758C239.178 172.408 238.983 172.175 238.005 172.058C237.674 172.019 235.622 171.981 235.23 171.981C235.133 171.981 235.093 172.039 235.093 172.175V177.094C235.093 177.231 235.113 177.308 235.23 177.308C235.661 177.308 237.908 177.308 238.357 177.269C238.826 177.23 239.119 177.172 239.295 176.978C239.432 176.822 239.51 176.725 239.608 176.725C239.686 176.725 239.745 176.764 239.745 176.88C239.745 176.997 239.667 177.308 239.588 178.3C239.569 178.688 239.51 179.466 239.51 179.602C239.51 179.758 239.51 179.971 239.334 179.971C239.197 179.971 239.159 179.894 239.159 179.797C239.139 179.602 239.139 179.349 239.08 179.097C238.983 178.708 238.709 178.416 237.986 178.338C237.615 178.3 235.68 178.28 235.211 178.28C235.113 178.28 235.094 178.358 235.094 178.474V180.011C235.094 180.671 235.075 182.46 235.094 183.024C235.133 184.365 235.445 184.657 237.439 184.657C237.947 184.657 238.768 184.657 239.276 184.424C239.785 184.191 240.019 183.782 240.156 182.985C240.195 182.771 240.234 182.693 240.371 182.693C240.527 182.693 240.527 182.849 240.527 183.043C240.527 183.49 240.371 184.812 240.273 185.201C240.136 185.707 239.961 185.707 239.218 185.707C237.751 185.707 236.677 185.668 235.837 185.649C234.996 185.61 234.39 185.591 233.804 185.591C233.589 185.591 233.159 185.591 232.69 185.61C232.24 185.61 231.732 185.649 231.341 185.649C231.088 185.649 230.95 185.591 230.95 185.455C230.95 185.357 231.029 185.299 231.264 185.299C231.557 185.299 231.791 185.26 231.967 185.222C232.358 185.144 232.456 184.715 232.534 184.152C232.632 183.336 232.632 181.8 232.632 180.011V176.588H232.631Z" fill="#1E1A16"/>
<path d="M247.814 185.415C247.501 185.279 247.442 185.182 247.442 184.754C247.442 183.685 247.521 182.518 247.54 182.207C247.559 181.915 247.618 181.701 247.775 181.701C247.95 181.701 247.97 181.876 247.97 182.032C247.97 182.285 248.048 182.693 248.145 183.024C248.576 184.462 249.729 184.987 250.94 184.987C252.699 184.987 253.559 183.802 253.559 182.771C253.559 181.818 253.266 180.923 251.644 179.66L250.745 178.96C248.595 177.288 247.852 175.927 247.852 174.352C247.852 172.213 249.65 170.677 252.367 170.677C253.637 170.677 254.458 170.872 254.966 171.007C255.142 171.046 255.239 171.104 255.239 171.241C255.239 171.493 255.161 172.057 255.161 173.574C255.161 174.002 255.103 174.157 254.946 174.157C254.809 174.157 254.75 174.041 254.75 173.807C254.75 173.633 254.653 173.03 254.242 172.524C253.949 172.155 253.382 171.571 252.112 171.571C250.665 171.571 249.786 172.408 249.786 173.574C249.786 174.469 250.236 175.148 251.857 176.374L252.404 176.783C254.769 178.552 255.609 179.894 255.609 181.741C255.609 182.868 255.18 184.21 253.772 185.124C252.795 185.746 251.7 185.921 250.665 185.921C249.532 185.921 248.652 185.785 247.812 185.416L247.814 185.415Z" fill="#1E1A16"/>
<path d="M130.587 75.0954C130.407 73.8362 129.954 73.0278 129.142 72.4876C128.509 72.1283 127.877 71.9479 127.155 71.859C127.155 71.859 125.348 71.6791 123.178 72.8484C120.467 74.4658 115.314 78.063 113.237 90.3806C117.754 89.0319 121.46 87.413 124.171 85.7056C127.335 83.6374 129.232 81.3899 130.227 78.872C130.407 78.2424 130.858 76.534 130.587 75.0959V75.0954ZM2.6227 153.675C0.00197344 149 0.0019734 143.696 0.0019734 143.246C-0.0879156 134.076 2.89392 126.073 8.76925 119.42C13.739 113.846 20.7885 109.171 29.7351 105.575C45.3685 99.1919 63.8944 97.1232 76.3652 96.1348C89.1982 95.055 99.0483 93.7968 106.821 92.0879C107.725 88.6716 108.99 84.8062 110.797 81.1195C114.141 74.5568 118.299 70.6003 123.268 69.1618C123.539 69.1618 127.697 67.9935 130.769 69.8818C132.306 70.9601 133.3 72.4886 133.662 74.5568C134.113 77.0747 133.21 79.591 133.12 79.8614C131.132 85.1659 125.979 89.2113 117.395 92.2688C117.395 92.2688 114.322 93.3482 112.786 93.7074C112.515 96.3152 112.334 99.2813 112.426 102.698C112.515 133.537 99.5928 162.937 66.0642 161.228C58.9247 160.869 52.3272 157.452 52.3272 157.452C49.4352 155.924 46.8155 154.036 44.5554 151.788C41.8443 149.001 39.7665 145.674 38.4109 141.988C37.1452 138.571 36.6038 135.065 36.6937 131.468C36.7831 128.682 37.3271 125.804 38.3195 123.107C39.9478 118.522 42.115 115.735 42.3877 115.375C45.911 110.61 51.4242 107.194 57.8404 105.755C60.9131 105.125 63.9864 104.856 67.0591 105.125C70.2218 105.395 73.1137 106.204 75.8244 107.373C80.434 109.531 83.9588 113.127 85.9451 117.622C87.3028 120.5 87.9335 123.826 87.9335 127.423C87.9335 129.22 87.8442 131.289 87.573 132.907C87.573 132.907 87.1214 136.953 84.6815 139.74C84.6815 139.74 83.9588 140.73 82.331 140.819C81.3381 140.909 79.7092 140.37 78.6269 138.932C78.6269 138.932 77.5421 137.852 78.8976 136.504C79.7092 135.694 82.9633 130.839 82.783 124.636C82.783 124.636 83.1451 113.666 72.5708 109.441C68.3233 107.912 63.3536 107.643 58.4737 108.722C53.052 109.981 48.5317 112.948 45.2797 116.634C42.567 119.691 41.2119 124.186 41.2119 124.186C40.3079 126.614 39.8564 129.131 39.7665 131.649C39.675 134.795 40.218 137.942 41.3029 140.909C42.4776 144.236 44.2847 147.113 46.7251 149.63C48.713 151.608 51.0636 153.316 53.6833 154.755C53.6833 154.755 61.2758 159.25 71.3966 157.811C75.1027 157.272 78.6274 155.744 81.7901 153.407C86.8513 149.81 91.2775 144.236 94.9836 136.683C99.3226 127.602 102.756 115.735 105.015 101.349C105.015 100.99 105.377 98.6527 106.01 95.3259C98.4185 96.9438 88.8376 98.203 76.6396 99.1924C50.8833 101.26 38.2311 105.396 30.9109 108.362C26.574 110.161 22.6871 112.139 19.3431 114.387C13.1077 118.972 6.33088 126.614 5.51671 138.661C4.61266 151.968 16.1804 155.025 18.0774 154.306C19.3431 153.767 20.1567 154.485 20.1567 154.485C21.4209 155.475 21.6936 157.542 21.2416 158.621C20.6987 160.06 19.4325 160.599 19.4325 160.599C14.4633 162.847 8.046 159.79 6.23893 158.172C4.52122 156.913 2.62425 153.676 2.62425 153.676L2.6227 153.675Z" fill="#1E1A16"/>
<path d="M128.517 118.702C127.342 120.59 128.969 121.399 128.969 121.399C130.053 121.939 131.589 121.759 132.764 121.399C134.934 120.591 136.56 118.883 136.56 118.883C139.632 115.736 140.536 112.14 140.536 112.14C141.44 108.993 139.993 108.363 139.993 108.363C139.633 108.184 137.012 107.375 128.517 118.703L128.517 118.702ZM150.748 117.174C149.03 119.961 144.965 126.434 140.536 131.828C140.536 131.828 137.101 136.324 132.221 139.111C129.058 140.91 125.173 141.719 121.648 140.371C116.949 138.572 115.051 134.795 115.051 131.02C115.051 125.716 118.305 120.41 118.305 120.41C123.185 111.96 132.131 104.947 138.637 105.666C138.637 105.666 139.722 105.756 140.536 106.115C141.529 106.565 142.162 107.285 142.433 107.824C143.065 108.903 143.247 110.252 143.065 111.96C143.065 111.96 142.343 115.916 139.18 119.692C137.1 122.12 133.667 124.637 129.149 123.737C129.149 123.737 126.98 123.288 126.166 121.849C126.076 122.029 125.985 122.209 125.805 122.388C118.123 134.705 123.454 138.033 123.454 138.033C126.257 139.471 129.42 138.392 132.13 136.594C135.926 134.077 138.909 130.211 138.909 130.211C141.528 127.063 144.692 122.659 148.488 116.455C148.759 115.916 149.301 115.645 149.844 115.645C150.656 115.645 151.107 116.455 150.747 117.174H150.748Z" fill="#1E1A16"/>
<path d="M156.807 131.379C158.977 128.862 160.784 126.254 161.779 124.725C163.586 120.5 165.845 116.455 168.014 113.128C168.285 112.408 168.826 110.251 168.104 108.992C168.014 108.722 167.743 108.542 167.563 108.361C167.201 108.182 164.127 107.283 153.464 122.387C153.464 122.387 144.608 135.335 148.223 137.402C148.404 137.493 148.857 137.582 149.217 137.493C151.386 136.683 154.007 134.615 156.808 131.378L156.807 131.379ZM186.178 117.173C182.926 122.568 171.177 141.359 163.857 140.37C163.857 140.37 162.591 140.37 161.417 139.381C160.694 141.089 159.972 142.708 159.247 144.326C154.999 153.407 154.91 159.071 155.272 161.768C155.362 162.577 154.458 163.207 153.644 162.758C147.048 158.801 153.103 143.607 153.103 143.607C154.277 140.46 155.543 137.403 156.898 134.527C154.006 137.494 151.385 139.291 149.037 139.921C149.037 139.921 148.223 140.1 147.138 140.1C147.138 140.1 140.361 140.55 142.891 128.323C145.149 116.994 157.802 104.767 166.207 105.666C166.207 105.666 167.292 105.756 168.104 106.115C169.099 106.565 169.731 107.284 170.091 107.823C170.273 108.273 170.454 108.723 170.635 109.262C171.266 108.183 171.899 107.374 172.442 106.745C173.075 105.845 174.158 105.305 175.334 105.305H177.864C179.13 105.305 179.852 106.654 179.219 107.643C174.43 114.836 160.875 135.965 164.308 137.943C164.308 137.943 170.273 138.842 183.918 116.455C184.28 115.916 184.732 115.646 185.273 115.646C186.088 115.646 186.539 116.455 186.177 117.174L186.178 117.173Z" fill="#1E1A16"/>
<path d="M221.601 117.173C218.349 122.568 206.6 141.359 199.369 140.37C199.369 140.37 192.682 140.19 195.574 129.49C190.966 135.424 185.634 140.909 181.658 140.37C181.658 140.37 173.794 140.19 178.766 126.703C181.929 118.072 187.713 109.98 190.153 106.744C190.875 105.846 191.959 105.305 193.044 105.305H195.665C196.84 105.305 197.562 106.654 196.929 107.643C192.23 114.836 178.674 135.965 182.109 137.942C182.109 137.942 187.441 138.752 199.46 119.96C202.533 114.116 206.056 109.082 207.865 106.744C208.588 105.846 209.672 105.305 210.757 105.305H213.377C214.553 105.305 215.275 106.654 214.643 107.643C209.944 114.836 196.388 135.965 199.821 137.942C199.821 137.942 205.786 138.842 219.433 116.455C219.704 115.915 220.245 115.645 220.788 115.645C221.511 115.645 221.963 116.455 221.601 117.174V117.173Z" fill="#1E1A16"/>
<path d="M239.591 117.173C236.338 122.568 224.589 141.359 217.36 140.37C217.36 140.37 209.497 140.19 214.468 126.703C217.631 118.072 223.414 109.98 225.854 106.744C226.577 105.846 227.661 105.305 228.746 105.305H231.367C232.542 105.305 233.264 106.654 232.632 107.643C227.933 114.836 214.377 135.965 217.811 137.942C217.811 137.942 223.777 138.842 237.422 116.455C237.692 115.915 238.236 115.645 238.777 115.645C239.5 115.645 240.043 116.455 239.591 117.174V117.173Z" fill="#1E1A16"/>
<path d="M274.297 117.174C271.045 122.568 259.205 141.359 251.976 140.37C251.976 140.37 243.57 140.1 248.722 126.703C249.717 124.007 253.331 116.904 253.331 116.904C258.122 108.452 257.037 108.183 257.037 108.183C255.771 107.014 251.614 110.341 246.011 118.971C240.316 127.693 236.521 139.022 236.521 139.022C236.342 139.65 235.528 140.01 234.987 139.65C228.57 135.605 235.347 120.409 235.347 120.409C237.246 116.005 239.956 111.149 242.397 107.284C243.119 106.024 244.565 105.306 246.011 105.306L248.452 105.216C249.536 105.216 250.259 106.474 249.626 107.374C246.463 112.319 243.482 117.264 241.494 121.13C239.414 125.175 238.151 128.592 237.428 131.29C240.139 124.187 246.102 113.848 251.525 108.543C253.964 106.205 256.404 104.767 259.297 105.396C268.062 107.194 258.393 121.849 258.393 121.849C254.054 129.402 250.44 136.774 252.429 137.943C252.429 137.943 258.393 138.843 272.039 116.456C272.31 115.916 272.852 115.646 273.394 115.646C274.208 115.646 274.66 116.456 274.297 117.175L274.297 117.174Z" fill="#1E1A16"/>
<path d="M277.281 107.554C277.551 106.835 277.911 106.115 278.093 105.396C278.997 102.429 277.281 102.699 277.281 102.699C276.377 102.878 275.293 104.317 277.281 107.553V107.554ZM281.888 128.143C276.467 127.783 271.135 127.603 269.599 131.739C268.695 134.167 271.046 135.335 271.046 135.335C278.545 138.303 281.888 128.143 281.888 128.143ZM299.873 117.174C299.241 118.163 298.247 119.782 297.072 121.67C297.072 121.67 293.999 126.974 288.215 128.053C287.854 130.03 287.131 132.099 285.775 134.346C282.613 139.561 275.473 142.438 270.142 139.922C270.142 139.922 264.266 137.494 266.344 131.379C266.344 131.379 268.695 123.288 281.528 125.355C281.709 125.355 281.98 125.355 282.161 125.445C281.709 121.22 278.003 115.736 276.556 113.667C274.66 116.814 273.394 118.702 272.309 120.32C271.857 120.95 270.954 120.95 270.593 120.231C270.321 119.782 270.321 119.152 270.683 118.702C272.128 116.455 273.575 114.207 275.022 111.599C269.508 103.777 273.485 99.7304 276.919 99.1024C280.714 98.4723 281.166 101.53 281.166 101.53C281.709 103.958 279.811 108.003 278.906 109.712C279.629 110.431 280.532 111.329 281.618 112.408C284.6 115.466 288.396 119.692 288.486 125.355C290.475 124.905 292.915 123.736 294.722 121.04C295.717 119.601 296.62 118.072 297.703 116.455C297.975 115.915 298.427 115.645 299.06 115.645C299.783 115.645 300.235 116.455 299.872 117.173L299.873 117.174Z" fill="#1E1A16"/>
<path fill-rule="evenodd" clip-rule="evenodd" d="M231.748 93.0895C231.748 93.0895 236.934 89.773 236.854 83.5885C236.774 77.4045 231.457 70.6953 231.457 70.6953C231.457 70.6953 226.316 77.5392 226.397 83.7237C226.477 89.9076 231.748 93.0901 231.748 93.0901V93.0895ZM240.887 86.8878C243.594 80.9737 241.559 72.2277 241.559 72.2277C241.559 72.2277 241.009 72.5967 240.133 73.2335C238.14 74.6834 237.106 77.1272 237.519 79.5495C237.68 80.4937 237.764 81.4532 237.776 82.4426C237.87 89.6731 231.858 93.5802 231.758 93.6445L231.756 93.6447L231.757 93.6449L231.756 93.6454L231.758 93.6451C231.877 93.673 238.1 95.1075 242.715 90.5969C247.375 86.0427 248.631 77.1528 248.631 77.1528L248.623 77.154L248.604 77.1564C245.785 77.5208 243.515 79.6501 242.996 82.4312V82.4306C242.753 83.7299 242.386 85.003 241.849 86.1753C239.221 91.917 233.424 93.3348 232.052 93.5949C233.343 93.3458 238.527 92.0441 240.887 86.8878ZM221.472 86.4375C220.928 85.3248 220.585 84.1627 220.36 82.9729C219.862 80.3203 217.802 78.2316 215.14 77.7182C214.707 77.6344 214.457 77.5922 214.457 77.5922C214.457 77.5922 215.944 86.4473 220.72 90.8796C225.461 95.2783 231.659 93.6696 231.754 93.6445L231.755 93.6446L231.755 93.6444L231.756 93.6442L231.755 93.6441C231.672 93.5941 225.54 89.8433 225.446 82.6007L225.446 82.6012C225.435 81.7634 225.537 80.9462 225.708 80.1393C226.288 77.4153 225.029 74.6292 222.631 73.1932C221.876 72.7409 221.398 72.486 221.398 72.486C221.398 72.486 219.593 81.2819 222.452 87.1245C224.99 92.3087 230.349 93.4263 231.524 93.6124C230.276 93.4184 224.295 92.204 221.472 86.4375ZM259.349 82.3519C259.349 82.3519 254.849 81.3013 250.669 86.1341C246.489 90.966 241.469 96.6988 231.778 94.8003L231.777 94.7999L231.777 94.7997L231.777 94.7998L231.776 94.7991L231.777 94.7999L231.776 94.8L231.776 94.8L231.776 94.8C222.136 96.9476 216.968 91.3462 212.665 86.6232C208.361 81.8999 203.889 83.0655 203.889 83.0655V83.0661C206.781 84.0611 208.352 85.8807 210.206 88.0265C211.608 89.6503 213.172 91.4608 215.591 93.2419C223.174 98.8254 231.621 94.8735 231.775 94.8008C223.764 100.551 216.797 97.4267 210.972 94.7712C205.194 92.1379 201.557 94.8933 201.498 94.9387C201.498 94.9387 201.497 94.9387 201.497 94.9388V94.9393C201.497 94.9393 201.497 94.9391 201.498 94.9387C204.549 94.721 206.714 95.7779 209.266 97.0242C211.198 97.9675 213.353 99.0192 216.281 99.7088C225.503 101.881 231.719 94.8643 231.776 94.8004C231.776 94.8004 231.776 94.8003 231.776 94.8002L231.777 94.8006C231.885 94.916 238.267 101.707 247.393 99.3075C250.303 98.5426 252.429 97.4358 254.336 96.443C256.856 95.1311 258.993 94.0186 262.049 94.1582C262.049 94.1582 258.327 91.4296 252.573 94.2348C246.819 97.039 239.936 100.341 231.779 94.8016C231.981 94.8905 240.502 98.5862 247.916 92.8263C250.288 90.9836 251.804 89.1334 253.163 87.4741C254.961 85.281 256.485 83.4212 259.349 82.3524V82.3519ZM231.777 94.8001L231.777 94.8001L231.777 94.8001L231.777 94.8001Z" fill="#B01BA6"/>
<defs>
<linearGradient id="paint0_linear_215_1035" x1="112.318" y1="26.8549" x2="223.568" y2="237.192" gradientUnits="userSpaceOnUse">
<stop stop-color="#CDB689"/>
<stop offset="1" stop-color="#F0E1A8"/>
</linearGradient>
</defs>
</svg>
